# xmcd CD database file
#
# Track frame offsets:
#	150
#	12772
#	23650
#	43730
#	63025
#	75862
#	86747
#	97095
#	110835
#	123592
#	138870
#	153067
#	165987
#	180360
#	192175
#	207100
#	218434
#	228622
#	239837
#	250342
#	261610
#	272600
#	285867
#	298552
#	310747
#
# Disc length: 4307 seconds
#
# Revision: 0
# Processed by: cddbd v1.5.2PL0 Copyright (c) Steve Scherf et al.
# Submitted via: CDex 1.70beta2
#
DISCID=5010d119
DTITLE=Jones Classic Country - Jones Classic Country CCC-603
DYEAR=0000
DGENRE=Country
TTITLE0=Hankshaw Hawkins/Lonesome 7-7203
TTITLE1=George Jones/Her Name Is
TTITLE2=Marty Robbins/El Paso
TTITLE3=Ray Charles/I Can't Stop Loving You
TTITLE4=Merle Haggard/Bottle Let Me Down
TTITLE5=Ferlin Husky/Gone
TTITLE6=Willie Nelson/Touch Me
TTITLE7=Claude King/Wolverton Mountain
TTITLE8=Barbara Mandrell/Midnight Oil
TTITLE9=Merle Haggard/Daddy Frank (The Guitar Man)
TTITLE10=Sonny James/Is It Wrong (For Loving You)
TTITLE11=George Jones/White Lightnin'
TTITLE12=Dolly Parton/Joshua
TTITLE13=Ernest Tubb/Thanks A Lot
TTITLE14=Lorne Greene/Ringo
TTITLE15=Linda Ronstadt/Silver Threads And Golden Needles
TTITLE16=Anne Murray/Snowbird
TTITLE17=Del Reeves/Looking At The World Through A Windshield
TTITLE18=Billy "Crash" Craddock/Rub It In
TTITLE19=Statler Brothers/Bed Of Roses
TTITLE20=Don Gibson/Lonesome Number One
TTITLE21=Ronnie Milsap/I Hate You
TTITLE22=Bill Anderson/Po' Folks
TTITLE23=Jim Reeves/Mexican Joe
TTITLE24=Hank Williams/Your Cheatin' Heart
EXTD=YEAR: 0000
EXTT0=
EXTT1=
EXTT2=
EXTT3=
EXTT4=
EXTT5=
EXTT6=
EXTT7=
EXTT8=
EXTT9=
EXTT10=
EXTT11=
EXTT12=
EXTT13=
EXTT14=
EXTT15=
EXTT16=
EXTT17=
EXTT18=
EXTT19=
EXTT20=
EXTT21=
EXTT22=
EXTT23=
EXTT24=
PLAYORDER=
